<mxfile host="app.diagrams.net" modified="2022-06-05T20:40:48.566Z" agent="5.0 (X11)" etag="V5ua1a1iobcHqAEbNf5t" version="19.0.0" type="github">
  <diagram id="DFl5VWm1MwgBSp55ozRP" name="Page-1">
    <mxGraphModel dx="2062" dy="1079" grid="1" gridSize="10" guides="1" tooltips="1" connect="1" arrows="1" fold="1" page="1" pageScale="1" pageWidth="850" pageHeight="1100" math="0" shadow="0">
      <root>
        <mxCell id="0" />
        <mxCell id="1" parent="0" />
        <mxCell id="7l_nS6WjhbTdLPaT8Ojh-7" style="edgeStyle=orthogonalEdgeStyle;rounded=0;orthogonalLoop=1;jettySize=auto;html=1;exitX=1;exitY=0.5;exitDx=0;exitDy=0;entryX=0.25;entryY=1;entryDx=0;entryDy=0;endArrow=none;endFill=0;strokeColor=#994C00;" edge="1" parent="1" source="7l_nS6WjhbTdLPaT8Ojh-1" target="7l_nS6WjhbTdLPaT8Ojh-2">
          <mxGeometry relative="1" as="geometry" />
        </mxCell>
        <mxCell id="7l_nS6WjhbTdLPaT8Ojh-1" value="3" style="rounded=0;whiteSpace=wrap;html=1;" vertex="1" parent="1">
          <mxGeometry x="200" y="320" width="40" height="40" as="geometry" />
        </mxCell>
        <mxCell id="7l_nS6WjhbTdLPaT8Ojh-10" value="resistor" style="edgeStyle=orthogonalEdgeStyle;rounded=0;orthogonalLoop=1;jettySize=auto;html=1;exitX=0.75;exitY=1;exitDx=0;exitDy=0;entryX=0.75;entryY=0;entryDx=0;entryDy=0;endArrow=none;endFill=0;strokeColor=#994C00;" edge="1" parent="1" source="7l_nS6WjhbTdLPaT8Ojh-2" target="7l_nS6WjhbTdLPaT8Ojh-3">
          <mxGeometry relative="1" as="geometry" />
        </mxCell>
        <mxCell id="7l_nS6WjhbTdLPaT8Ojh-2" value="breadboard" style="rounded=0;whiteSpace=wrap;html=1;" vertex="1" parent="1">
          <mxGeometry x="440" y="240" width="200" height="40" as="geometry" />
        </mxCell>
        <mxCell id="7l_nS6WjhbTdLPaT8Ojh-9" style="edgeStyle=orthogonalEdgeStyle;rounded=0;orthogonalLoop=1;jettySize=auto;html=1;exitX=0.25;exitY=0;exitDx=0;exitDy=0;entryX=1;entryY=0.5;entryDx=0;entryDy=0;endArrow=none;endFill=0;" edge="1" parent="1" source="7l_nS6WjhbTdLPaT8Ojh-3" target="7l_nS6WjhbTdLPaT8Ojh-5">
          <mxGeometry relative="1" as="geometry" />
        </mxCell>
        <mxCell id="7l_nS6WjhbTdLPaT8Ojh-3" value="breadboard" style="rounded=0;whiteSpace=wrap;html=1;" vertex="1" parent="1">
          <mxGeometry x="440" y="560" width="200" height="40" as="geometry" />
        </mxCell>
        <mxCell id="7l_nS6WjhbTdLPaT8Ojh-11" style="edgeStyle=orthogonalEdgeStyle;rounded=0;orthogonalLoop=1;jettySize=auto;html=1;exitX=1;exitY=0.5;exitDx=0;exitDy=0;entryX=0.5;entryY=1;entryDx=0;entryDy=0;endArrow=none;endFill=0;strokeColor=#FF3333;" edge="1" parent="1" source="7l_nS6WjhbTdLPaT8Ojh-4" target="7l_nS6WjhbTdLPaT8Ojh-2">
          <mxGeometry relative="1" as="geometry" />
        </mxCell>
        <mxCell id="7l_nS6WjhbTdLPaT8Ojh-4" value="Vcc" style="rounded=0;whiteSpace=wrap;html=1;" vertex="1" parent="1">
          <mxGeometry x="200" y="400" width="40" height="40" as="geometry" />
        </mxCell>
        <mxCell id="7l_nS6WjhbTdLPaT8Ojh-5" value="&lt;div&gt;GND&lt;/div&gt;" style="rounded=0;whiteSpace=wrap;html=1;" vertex="1" parent="1">
          <mxGeometry x="200" y="480" width="40" height="40" as="geometry" />
        </mxCell>
      </root>
    </mxGraphModel>
  </diagram>
</mxfile>
